# xmcd
#
# Track frame offsets: 
#        150
#        9142
#        36805
#        70000
#        90170
#        125212
#        150757
#        176540
#        207095
#        241772
#        260175
#        286842
#
# Disc length: 3977 seconds
#
# Revision: 0
# Processed by: cddbd v1.5.2PL0 Copyright (c) Steve Scherf et al.
# Submitted via: ExactAudioCopy v1.0b3
#
DISCID=8e0f870c
DTITLE=Christoph Kranig - Places Of Peace And Freedom
DYEAR=1994
DGENRE=Electronic
TTITLE0=Prologue
TTITLE1=Where Legends Begin
TTITLE2=Schlafende Einsamkeit
TTITLE3=Mountain Kingdom
TTITLE4=Lofoten Islands
TTITLE5=A Midsummer Night At Tromso Cafe
TTITLE6=L'Idylle De La Mer
TTITLE7=Weltpark Antarktis
TTITLE8=Hoffnung Von Einer Stätte Des Friedens
TTITLE9=Le Bonheur (Vol. 2)
TTITLE10=Destination Heaven
TTITLE11=Epilogue
EXTD=
EXTT0=
EXTT1=
EXTT2=
EXTT3=
EXTT4=
EXTT5=
EXTT6=
EXTT7=
EXTT8=
EXTT9=
EXTT10=
EXTT11=
PLAYORDER=
